# xmcd
# 
# Track frame offsets:
#     150
#     5947
#     23272
#     41562
#     60291
#     82312
#     97755
#     117346
#     134855
#     150662
#     168795
#     194572
#     211276
#     233972
#     251532
# 
# Disc length: 3559
# 
# Revision: 6
# Processed by: cddbd v1.5.2PL0 Copyright (c) Steve Scherf et al.
# Submitted via: BonkEnc v1.0.8
# 
DISCID=c50de50f
DTITLE=倖田來未 - TRICK
DYEAR=2009
DGENRE=JPop
TTITLE0=INTRODUCTION FOR TRICK
TTITLE1=TABOO
TTITLE2=show girl
TTITLE3=Your Love
TTITLE4=stay with me
TTITLE5=This is not a love song
TTITLE6=Driving
TTITLE7=Bling Bling Bling feat.AK-69
TTITLE8=That Ain't Cool (倖田來未 feat. Fergie)
TTITLE9=Hurry Up!
TTITLE10=Moon Crying
TTITLE11=JUST THE WAY YOU ARE
TTITLE12=Joyful
TTITLE13=愛のことば
TTITLE14=Venus
EXTD=YEAR: 2009
EXTT0=
EXTT1=
EXTT2=
EXTT3=
EXTT4=
EXTT5=
EXTT6=
EXTT7=
EXTT8=
EXTT9=
EXTT10=
EXTT11=
EXTT12=
EXTT13=
EXTT14=
PLAYORDER=
